<svg width="70" height="70" viewBox="0 0 70 70" fill="none" xmlns="http://www.w3.org/2000/svg">
<circle cx="35" cy="35" r="35" fill="white"/>
<circle cx="35" cy="35" r="34" stroke="#212121" strokeOpacity="0.4" strokeWidth="2"/>
<path d="M45.1779 24.1115C44.9564 23.9971 44.7408 23.8716 44.5319 23.7355C43.9244 23.3339 43.3673 22.8606 42.8728 22.326C41.6355 20.9103 41.1734 19.474 41.0032 18.4685H41.01C40.8678 17.6338 40.9266 17.0938 40.9355 17.0938H35.3V38.8854C35.3 39.1779 35.3 39.4671 35.2877 39.7528C35.2877 39.7884 35.2843 39.8212 35.2822 39.8595C35.2822 39.8752 35.2822 39.8916 35.2788 39.908C35.2788 39.9121 35.2788 39.9162 35.2788 39.9203C35.2194 40.7022 34.9687 41.4575 34.5489 42.1198C34.1291 42.782 33.553 43.331 32.8712 43.7184C32.1606 44.1226 31.3569 44.3347 30.5394 44.3336C27.9137 44.3336 25.7857 42.1926 25.7857 39.5484C25.7857 36.9043 27.9137 34.7633 30.5394 34.7633C31.0365 34.7628 31.5304 34.841 32.003 34.995L32.0098 29.2569C30.5752 29.0716 29.1178 29.1856 27.7294 29.5918C26.3411 29.9979 25.052 30.6874 23.9434 31.6167C22.9721 32.4607 22.1555 33.4677 21.5303 34.5924C21.2925 35.0025 20.3949 36.6507 20.2862 39.3256C20.2178 40.8438 20.6738 42.4168 20.8912 43.0669V43.0806C21.0279 43.4634 21.5577 44.7697 22.4211 45.871C23.1173 46.7544 23.9398 47.5304 24.8622 48.174V48.1604L24.8759 48.174C27.6041 50.0279 30.629 49.9062 30.629 49.9062C31.1526 49.8851 32.9067 49.9062 34.8987 48.9622C37.1081 47.9156 38.3659 46.3563 38.3659 46.3563C39.1695 45.4247 39.8084 44.3629 40.2553 43.2166C40.7653 41.8761 40.9355 40.2683 40.9355 39.6257V28.0647C41.0039 28.1058 41.9144 28.708 41.9144 28.708C41.9144 28.708 43.2262 29.5488 45.2729 30.0964C46.7413 30.486 48.7196 30.5681 48.7196 30.5681V24.9735C48.0264 25.0487 46.6189 24.83 45.1779 24.1115Z" fill="#212121" fillOpacity="0.4"/>
</svg>
